<svg xmlns="http://www.w3.org/2000/svg" xml:space="preserve" style="enable-background:new 0 0 800 600" viewBox="0 0 800 600">
  <path d="M266.2 389h-63.6l-48.5 44.6h157.5V285.7L266.2 329zM39.7 166.3v267.3h66.4l48-44.6h-69V211h181.1v72.9l45.4-44.2v-73.4z"/>
  <path d="M154.1 389.2h48.5l63.6-60.2v-45.1zm211.4-216.6h8.2l25.6 68.2h-12.1L369.6 190l-17.7 50.8h-12l25.6-68.2zm-13.6 44.5h36v10.7h-36v-10.7zm63.3 21.4c-3.7-2-6.5-4.9-8.4-8.7s-2.9-8.3-2.9-13.7v-43.5h11.3v43.9c0 4.4 1.1 7.8 3.4 10.3 2.3 2.4 5.5 3.6 9.7 3.6 4.3 0 7.5-1.2 9.8-3.6s3.5-6 3.5-10.4v-43.8h11.2v43.5c0 5.4-1 10-2.9 13.7a20 20 0 0 1-8.3 8.7c-3.7 2-8.1 3-13.3 3-5 0-9.5-1-13.1-3zm62.3 2a38.3 38.3 0 0 1-15.8-7.4l6-9a29.9 29.9 0 0 0 19.2 6.7c4.6 0 8.1-.8 10.6-2.4 2.5-1.6 3.8-4 3.8-6.9 0-2.1-.6-3.8-1.7-5a9.9 9.9 0 0 0-4.4-2.8 54.3 54.3 0 0 0-7.6-1.7l-.8-.1c-4.6-.8-8.3-1.7-11.3-2.7-2.9-1-5.4-2.9-7.5-5.5-2-2.7-3-6.4-3-11.3 0-4.4 1-8 2.9-11.1 1.9-3 4.7-5.4 8.4-7 3.7-1.6 8.1-2.4 13.3-2.4a33.4 33.4 0 0 1 14.6 3.2c2.3 1 4.6 2.3 6.8 4l-5.4 9.2a32.7 32.7 0 0 0-8-4.3 23 23 0 0 0-8-1.5c-4.3 0-7.6.8-10 2.4s-3.5 3.8-3.5 6.7a7 7 0 0 0 1.8 5.1c1.2 1.3 2.7 2.2 4.6 2.8a74.3 74.3 0 0 0 9.4 2.2c4.2.8 7.7 1.8 10.5 3 2.9 1.2 5.2 3.1 7.2 5.7a18 18 0 0 1 2.8 10.8c0 4.3-1 8-3 11s-4.9 5.3-8.7 7a44.8 44.8 0 0 1-23.2 1.4zM375 267.6h8.4l13.5 49.5 10.4-49.5h11.6l-16.2 68.2h-11l-12.3-47.6-12.9 47.6h-10.9l-16.2-68.2H351l10.4 49.5 13.5-49.5zm64.2 68.2h-11.4v-68.2h11.4v68.2zm15.5-68.2h12.2l29.3 52.5-1 1.2v-53.7H506v68.2h-12.3L464.4 284l1.2-1.2v52.9h-11v-68.2zm67.3 0h11.2v68.2h-11.3v-68.2zm6.4 57.4h16c4.5 0 8.1-1.1 10.7-3.4 2.5-2.3 3.8-5.6 3.8-9.9v-20c0-4.3-1.3-7.6-3.8-9.9a15.5 15.5 0 0 0-10.8-3.5h-15.9v-10.7H544c5.6 0 10.3 1 14.3 2.9s7 4.6 9 8.3a26 26 0 0 1 3.1 13.2v19.3c0 5-1 9.4-3 13-2 3.7-5 6.6-9 8.5-4 2-8.8 3-14.4 3h-15.6V325zm64.9 8.4a22 22 0 0 1-8.6-8.8 28 28 0 0 1-3-13.2V292c0-5 1-9.4 3-13.2 2-3.8 5-6.7 8.6-8.8 3.7-2 8-3.1 12.8-3.1 4.9 0 9.1 1 12.8 3.1 3.7 2.1 6.6 5 8.6 8.8 2 3.8 3 8.2 3 13.2v19.4c0 5-1 9.4-3 13.2-2 3.8-4.9 6.7-8.6 8.8-3.7 2-8 3.1-12.8 3.1-4.8 0-9-1-12.8-3.1zm19.6-9.7c2-1.1 3.5-2.7 4.5-4.8 1-2.1 1.6-4.5 1.6-7.2v-20c0-2.7-.5-5.1-1.6-7.2a11 11 0 0 0-4.5-4.8c-2-1.1-4.2-1.7-6.8-1.7-2.6 0-4.8.6-6.8 1.7s-3.4 2.7-4.5 4.8c-1 2-1.6 4.5-1.6 7.2v20c0 2.7.5 5.1 1.6 7.2 1 2 2.6 3.7 4.5 4.8a14 14 0 0 0 6.8 1.7c2.6 0 4.9-.6 6.8-1.7zm60.7-56.1h8.4l13.5 49.5 10.4-49.5h11.6l-16.2 68.2h-10.9l-12.3-47.6-13 47.6h-10.9l-16.1-68.2h11.5l10.5 49.5 13.5-49.5zM358 430.5a38.3 38.3 0 0 1-15.8-7.4l6-9a30.3 30.3 0 0 0 19.2 6.8c4.6 0 8.1-.9 10.6-2.5 2.6-1.6 3.8-4 3.8-6.9 0-2.1-.6-3.8-1.7-5a9.9 9.9 0 0 0-4.4-2.7 54.3 54.3 0 0 0-7.5-1.8l-.9-.1c-4.5-.7-8.3-1.6-11.2-2.7a15 15 0 0 1-7.5-5.5 17.9 17.9 0 0 1-3.1-11.3c0-4.4 1-8 2.9-11.1 2-3 4.7-5.4 8.4-7 3.7-1.6 8.1-2.4 13.3-2.4a33.4 33.4 0 0 1 14.6 3.2c2.4 1 4.6 2.4 6.9 4l-5.5 9.2a32.7 32.7 0 0 0-8-4.3c-2.7-1-5.4-1.4-8-1.4-4.3 0-7.6.7-10 2.3a7.6 7.6 0 0 0-3.5 6.7 7 7 0 0 0 1.8 5.2 11 11 0 0 0 4.6 2.7 74.3 74.3 0 0 0 9.4 2.2c4.2.8 7.7 1.8 10.6 3 2.8 1.2 5.2 3.1 7 5.7a18 18 0 0 1 3 10.8c0 4.3-1 8-3 11s-5 5.3-8.8 7a44.7 44.7 0 0 1-23.2 1.4zm46.6-67.9H416v68.2h-11.3v-68.2zm6 29.1h38.8v10.8h-38.8v-10.8zm32-29H454v68.1h-11.2v-68.2zm27.2-.1H481v68.2h-11.2v-68.2zm4.7 29.3H498c1.5 0 3-.4 4.1-1.1a7.5 7.5 0 0 0 2.8-3.3c.7-1.4 1-3 1-5 0-1.7-.3-3.4-1-4.8a7.6 7.6 0 0 0-2.7-3.2 7.6 7.6 0 0 0-4.2-1.2h-23.5v-10.7h23.8c3.8 0 7.2.8 10.1 2.5 3 1.6 5.2 4 6.8 7a22 22 0 0 1 2.4 10.5c0 4-.8 7.5-2.4 10.5a17 17 0 0 1-6.8 7 20 20 0 0 1-10.1 2.6h-23.8v-10.8zm16.4 8.7 11.7-2.2 17.9 32.4H507l-16-30.3zm49.9 27.8c-3.7-2.1-6.6-5-8.6-8.8a28 28 0 0 1-3-13.2V387c0-5 1-9.4 3-13.2 2-3.8 4.9-6.7 8.6-8.8 3.7-2 8-3.1 12.8-3.1 4.8 0 9.1 1 12.8 3.1a22 22 0 0 1 8.6 8.8c2 3.8 3 8.2 3 13.2v19.4c0 5-1 9.4-3 13.2a22 22 0 0 1-8.6 8.8c-3.7 2-8 3.1-12.8 3.1-4.9 0-9.1-1-12.8-3.1zm19.6-9.7a11 11 0 0 0 4.5-4.8c1-2 1.6-4.5 1.6-7.2v-20c0-2.7-.5-5.1-1.6-7.2-1-2-2.6-3.7-4.5-4.8-2-1.1-4.2-1.7-6.8-1.7-2.6 0-4.8.6-6.8 1.7s-3.4 2.7-4.5 4.8c-1 2-1.6 4.5-1.6 7.2v20c0 2.7.5 5.1 1.6 7.2 1 2 2.6 3.7 4.5 4.8 2 1.1 4.2 1.7 6.8 1.7 2.6 0 4.8-.6 6.8-1.7zm40.6 9.8c-3.7-2-6.5-4.9-8.4-8.7a30.1 30.1 0 0 1-2.9-13.7v-43.5H601v43.9c0 4.4 1.1 7.8 3.4 10.3 2.3 2.4 5.6 3.6 9.7 3.6 4.3 0 7.5-1.2 9.8-3.6 2.4-2.5 3.5-5.9 3.5-10.3v-43.9h11.2v43.5c0 5.4-1 10-2.9 13.7a20 20 0 0 1-8.3 8.7c-3.7 2-8.1 3-13.2 3-5.2 0-9.6-1-13.2-3zm51.7-65.9h11.2v68.2h-11.2v-68.2zm6.5 57.5H675c4.6 0 8.2-1.2 10.7-3.5 2.6-2.3 3.8-5.6 3.8-9.9v-20c0-4.3-1.2-7.6-3.8-9.9a15.5 15.5 0 0 0-10.7-3.5h-16v-10.7h15.7c5.5 0 10.3 1 14.3 2.9s7 4.7 9 8.3c2 3.7 3 8 3 13.2v19.4c0 5-1 9.3-3 13-2 3.7-5 6.5-9 8.4-3.9 2-8.7 3-14.4 3h-15.5V420zm66.2 10.4a38.3 38.3 0 0 1-15.8-7.4l6-9a30.3 30.3 0 0 0 19.2 6.8c4.6 0 8.1-.9 10.6-2.5 2.6-1.6 3.8-4 3.8-6.9 0-2.1-.6-3.8-1.7-5a9.9 9.9 0 0 0-4.4-2.7 54.3 54.3 0 0 0-7.5-1.8l-.9-.1c-4.6-.7-8.3-1.6-11.3-2.7-2.9-1-5.4-2.8-7.4-5.5a17.9 17.9 0 0 1-3.1-11.3c0-4.4 1-8 2.9-11.1 1.9-3 4.7-5.4 8.4-7 3.7-1.6 8.1-2.4 13.3-2.4a33.4 33.4 0 0 1 14.6 3.2 41 41 0 0 1 6.9 4l-5.5 9.2a32.7 32.7 0 0 0-8-4.3c-2.7-1-5.4-1.4-8-1.4-4.3 0-7.6.7-10 2.3a7.6 7.6 0 0 0-3.5 6.7 7 7 0 0 0 1.8 5.2 11 11 0 0 0 4.6 2.7 74.3 74.3 0 0 0 9.4 2.2c4.2.8 7.7 1.8 10.6 3 2.8 1.2 5.2 3.1 7 5.7a18 18 0 0 1 3 10.8c0 4.3-1 8-3 11s-5 5.3-8.8 7a44.8 44.8 0 0 1-23.2 1.4z"/>
</svg>
